<?xml version="1.0" encoding="UTF-8" standalone="no"?>
<svg
   xmlns:dc="http://purl.org/dc/elements/1.1/"
   xmlns:cc="http://creativecommons.org/ns#"
   xmlns:rdf="http://www.w3.org/1999/02/22-rdf-syntax-ns#"
   xmlns:svg="http://www.w3.org/2000/svg"
   xmlns="http://www.w3.org/2000/svg"
   xmlns:sodipodi="http://sodipodi.sourceforge.net/DTD/sodipodi-0.dtd"
   xmlns:inkscape="http://www.inkscape.org/namespaces/inkscape"
   version="1.1"
   viewBox="0 0 936.80817 187.35432"
   stroke-miterlimit="10"
   id="svg4791"
   sodipodi:docname="lowcologo-small.svg"
   width="936.80817"
   height="187.35432"
   style="fill:none;stroke:none;stroke-linecap:square;stroke-miterlimit:10"
   inkscape:version="0.92.4 5da689c313, 2019-01-14">
  <metadata
     id="metadata4797">
    <rdf:RDF>
      <cc:Work
         rdf:about="">
        <dc:format>image/svg+xml</dc:format>
        <dc:type
           rdf:resource="http://purl.org/dc/dcmitype/StillImage" />
        <dc:title></dc:title>
      </cc:Work>
    </rdf:RDF>
  </metadata>
  <defs
     id="defs4795">
    <defs
       id="defs4707">
      <filter
         filterUnits="userSpaceOnUse"
         id="shadowFilter-p.1">
        <feGaussianBlur
           id="feGaussianBlur4694"
           result="blur"
           stdDeviation="2.0"
           in="SourceAlpha" />
        <feComponentTransfer
           id="feComponentTransfer4704"
           in="blur"
           style="color-interpolation-filters:sRGB">
          <feFuncR
             id="feFuncR4696"
             intercept="0.0"
             slope="0"
             type="linear" />
          <feFuncG
             id="feFuncG4698"
             intercept="0.0"
             slope="0"
             type="linear" />
          <feFuncB
             id="feFuncB4700"
             intercept="0.0"
             slope="0"
             type="linear" />
          <feFuncA
             id="feFuncA4702"
             intercept="0"
             slope="0.5"
             type="linear" />
        </feComponentTransfer>
      </filter>
    </defs>
  </defs>
  <sodipodi:namedview
     pagecolor="#ffffff"
     bordercolor="#666666"
     borderopacity="1"
     objecttolerance="10"
     gridtolerance="10"
     guidetolerance="10"
     inkscape:pageopacity="0"
     inkscape:pageshadow="2"
     inkscape:window-width="1920"
     inkscape:window-height="1158"
     id="namedview4793"
     showgrid="false"
     fit-margin-top="5"
     fit-margin-left="5"
     fit-margin-right="5"
     fit-margin-bottom="5"
     inkscape:zoom="1.1827957"
     inkscape:cx="368.60511"
     inkscape:cy="137.33942"
     inkscape:window-x="0"
     inkscape:window-y="20"
     inkscape:window-maximized="0"
     inkscape:current-layer="svg4791" />
  <clipPath
     id="p.0">
    <path
       d="M 0,0 H 1209 V 330 H 0 Z"
       id="path4685"
       inkscape:connector-curvature="0"
       style="clip-rule:nonzero" />
  </clipPath>
  <path
     style="fill:#3c78d8;fill-rule:evenodd"
     inkscape:connector-curvature="0"
     id="path4719"
     d="m 90.79529,63.90814 h 5.76379 v 5.76378 h -5.76379 z" />
  <path
     style="fill-rule:evenodd;stroke:#3c78d8;stroke-width:1;stroke-linecap:butt;stroke-linejoin:round"
     inkscape:connector-curvature="0"
     id="path4721"
     d="m 90.79529,63.90814 h 5.76379 v 5.76378 h -5.76379 z" />
  <path
     style="fill:#ff9900;fill-rule:evenodd"
     inkscape:connector-curvature="0"
     id="path4723"
     d="m 91.75291,117.67643 h 5.76378 v 5.76378 h -5.76378 z" />
  <path
     style="fill-rule:evenodd;stroke:#ff9900;stroke-width:1;stroke-linecap:butt;stroke-linejoin:round"
     inkscape:connector-curvature="0"
     id="path4725"
     d="m 91.75291,117.67643 h 5.76378 v 5.76378 h -5.76378 z" />
  <path
     style="fill:#1c4587;fill-rule:evenodd"
     inkscape:connector-curvature="0"
     id="path4727"
     d="m 113.21679,69.68135 v 0 c 15.21193,-0.19102 29.88312,4.74829 40.74704,13.7182 10.86395,8.96993 17.01874,21.2258 17.09406,34.03888 l -56.99144,0.23758 z" />
  <path
     style="fill-rule:evenodd;stroke:#1c4587;stroke-width:2;stroke-linecap:butt;stroke-linejoin:round"
     inkscape:connector-curvature="0"
     id="path4729"
     d="m 113.21679,69.68135 v 0 c 15.21193,-0.19102 29.88312,4.74829 40.74704,13.7182 10.86395,8.96993 17.01874,21.2258 17.09406,34.03888 l -56.99144,0.23758 z" />
  <path
     style="fill:#ff9900;fill-rule:evenodd"
     inkscape:connector-curvature="0"
     id="path4731"
     d="m 69.67767,131.43586 v 0 c 0,-4.41837 3.58179,-8.00017 8.00015,-8.00017 h 31.99968 v 0 c 2.12178,0 4.15665,0.84288 5.65697,2.3432 1.50032,1.50032 2.3432,3.53519 2.3432,5.65697 v 31.99968 c 0,4.41837 -3.5818,8.00015 -8.00017,8.00015 H 77.67782 c -4.41836,0 -8.00015,-3.58178 -8.00015,-8.00015 z" />
  <path
     style="fill-rule:evenodd;stroke:#ff9900;stroke-width:2;stroke-linecap:butt;stroke-linejoin:round"
     inkscape:connector-curvature="0"
     id="path4733"
     d="m 69.67767,131.43586 v 0 c 0,-4.41837 3.58179,-8.00017 8.00015,-8.00017 h 31.99968 v 0 c 2.12178,0 4.15665,0.84288 5.65697,2.3432 1.50032,1.50032 2.3432,3.53519 2.3432,5.65697 v 31.99968 c 0,4.41837 -3.5818,8.00015 -8.00017,8.00015 H 77.67782 c -4.41836,0 -8.00015,-3.58178 -8.00015,-8.00015 z" />
  <path
     style="fill:#1c4587;fill-rule:evenodd"
     inkscape:connector-curvature="0"
     id="path4735"
     d="m 15.91432,77.67617 v 0 c 0,-4.41837 3.5818,-8.00017 8.00017,-8.00017 h 31.99968 v 0 c 2.12178,0 4.15664,0.84288 5.65697,2.3432 1.50032,1.50032 2.34318,3.53519 2.34318,5.65697 v 31.99968 c 0,4.41837 -3.58179,8.00015 -8.00015,8.00015 H 23.91449 c -4.41837,0 -8.00017,-3.58178 -8.00017,-8.00015 z" />
  <path
     style="fill-rule:evenodd;stroke:#1c4587;stroke-width:2;stroke-linecap:butt;stroke-linejoin:round"
     inkscape:connector-curvature="0"
     id="path4737"
     d="m 15.91432,77.67617 v 0 c 0,-4.41837 3.5818,-8.00017 8.00017,-8.00017 h 31.99968 v 0 c 2.12178,0 4.15664,0.84288 5.65697,2.3432 1.50032,1.50032 2.34318,3.53519 2.34318,5.65697 v 31.99968 c 0,4.41837 -3.58179,8.00015 -8.00015,8.00015 H 23.91449 c -4.41837,0 -8.00017,-3.58178 -8.00017,-8.00015 z" />
  <path
     style="fill:#1c4587;fill-rule:evenodd"
     inkscape:connector-curvature="0"
     id="path4739"
     d="m 69.67456,77.67733 v 0 c 0,-4.41838 3.58179,-8.00017 8.00015,-8.00017 h 38.51937 c 2.12178,0 4.15664,0.84287 5.65696,2.3432 1.50032,1.50032 2.3432,3.53519 2.3432,5.65697 v 31.99968 c 0,4.41837 -3.5818,8.00015 -8.00016,8.00015 H 77.67471 c -4.41836,0 -8.00015,-3.58178 -8.00015,-8.00015 z" />
  <path
     style="fill-rule:evenodd;stroke:#1c4587;stroke-width:2;stroke-linecap:butt;stroke-linejoin:round"
     inkscape:connector-curvature="0"
     id="path4741"
     d="m 69.67456,77.67733 v 0 c 0,-4.41838 3.58179,-8.00017 8.00015,-8.00017 h 38.51937 c 2.12178,0 4.15664,0.84287 5.65696,2.3432 1.50032,1.50032 2.3432,3.53519 2.3432,5.65697 v 31.99968 c 0,4.41837 -3.5818,8.00015 -8.00016,8.00015 H 77.67471 c -4.41836,0 -8.00015,-3.58178 -8.00015,-8.00015 z" />
  <path
     style="fill:#3c78d8;fill-rule:evenodd"
     inkscape:connector-curvature="0"
     id="path4743"
     d="m 69.67717,23.91617 v 0 c 0,-4.418366 3.58179,-8.00016 8.00015,-8.00016 H 109.677 v 0 c 2.12178,0 4.15665,0.842873 5.65697,2.343193 1.50032,1.50032 2.3432,3.535194 2.3432,5.656967 v 31.99969 c 0,4.41836 -3.5818,8.00015 -8.00017,8.00015 H 77.67732 c -4.41836,0 -8.00015,-3.58179 -8.00015,-8.00015 z" />
  <path
     style="fill-rule:evenodd;stroke:#3c78d8;stroke-width:2;stroke-linecap:butt;stroke-linejoin:round"
     inkscape:connector-curvature="0"
     id="path4745"
     d="m 69.67717,23.91617 v 0 c 0,-4.418366 3.58179,-8.00016 8.00015,-8.00016 H 109.677 v 0 c 2.12178,0 4.15665,0.842873 5.65697,2.343193 1.50032,1.50032 2.3432,3.535194 2.3432,5.656967 v 31.99969 c 0,4.41836 -3.5818,8.00015 -8.00017,8.00015 H 77.67732 c -4.41836,0 -8.00015,-3.58179 -8.00015,-8.00015 z" />
  <path
     style="fill:#1c4587;fill-rule:evenodd"
     inkscape:connector-curvature="0"
     id="path4747"
     d="M 63.91432,90.79322 H 69.6781 V 96.557 h -5.76378 z" />
  <path
     style="fill-rule:evenodd;stroke:#1c4587;stroke-width:1;stroke-linecap:butt;stroke-linejoin:round"
     inkscape:connector-curvature="0"
     id="path4749"
     d="M 63.91432,90.79322 H 69.6781 V 96.557 h -5.76378 z" />
  <path
     style="fill:#ffffff;fill-rule:evenodd"
     inkscape:connector-curvature="0"
     id="path4751"
     d="m 80.37065,93.67562 v 0 c 0,-3.56593 2.94716,-6.4567 6.58267,-6.4567 v 0 c 1.74584,0 3.42017,0.68026 4.65466,1.89112 1.23449,1.21087 1.92801,2.85315 1.92801,4.56558 v 0 c 0,3.56593 -2.94715,6.4567 -6.58267,6.4567 v 0 c -3.63551,0 -6.58267,-2.89077 -6.58267,-6.4567 z" />
  <path
     style="fill:#ffffff;fill-rule:evenodd"
     inkscape:connector-curvature="0"
     id="path4753"
     d="m 102.28958,93.67562 v 0 c 0,-3.56593 2.94716,-6.4567 6.58267,-6.4567 v 0 c 1.74584,0 3.42017,0.68026 4.65465,1.89112 1.2345,1.21087 1.92802,2.85315 1.92802,4.56558 v 0 c 0,3.56593 -2.94715,6.4567 -6.58267,6.4567 v 0 c -3.63551,0 -6.58267,-2.89077 -6.58267,-6.4567 z" />
  <path
     style="fill:#ffffff;fill-rule:evenodd"
     inkscape:connector-curvature="0"
     id="path4755"
     d="m 124.20849,93.67562 v 0 c 0,-3.56593 2.94717,-6.4567 6.58267,-6.4567 v 0 c 1.74585,0 3.42017,0.68026 4.65466,1.89112 1.2345,1.21087 1.92804,2.85315 1.92804,4.56558 v 0 c 0,3.56593 -2.94717,6.4567 -6.5827,6.4567 v 0 c -3.6355,0 -6.58267,-2.89077 -6.58267,-6.4567 z" />
  <path
     style="fill:#cc0000;fill-rule:evenodd"
     inkscape:connector-curvature="0"
     id="path4757"
     d="m 45.43832,49.2389 v 0 c 0,-1.62064 1.3138,-2.93444 2.93443,-2.93444 h 11.83191 v 0 c 0.77826,0 1.52464,0.30917 2.07497,0.85948 0.55031,0.55031 0.85948,1.2967 0.85948,2.07496 v 11.73741 c 0,1.62065 -1.3138,2.93445 -2.93445,2.93445 H 48.37275 c -1.62063,0 -2.93443,-1.3138 -2.93443,-2.93445 z" />
  <path
     style="fill-rule:evenodd;stroke:#cc0000;stroke-width:2;stroke-linecap:butt;stroke-linejoin:round"
     inkscape:connector-curvature="0"
     id="path4759"
     d="m 45.43832,49.2389 v 0 c 0,-1.62064 1.3138,-2.93444 2.93443,-2.93444 h 11.83191 v 0 c 0.77826,0 1.52464,0.30917 2.07497,0.85948 0.55031,0.55031 0.85948,1.2967 0.85948,2.07496 v 11.73741 c 0,1.62065 -1.3138,2.93445 -2.93445,2.93445 H 48.37275 c -1.62063,0 -2.93443,-1.3138 -2.93443,-2.93445 z" />
  <path
     style="fill:#6aa84f;fill-rule:evenodd"
     inkscape:connector-curvature="0"
     id="path4761"
     d="m 45.43832,126.37801 v 0 c 0,-1.62065 1.3138,-2.93445 2.93443,-2.93445 h 11.83191 v 0 c 0.77826,0 1.52464,0.30916 2.07497,0.85948 0.55031,0.55031 0.85948,1.2967 0.85948,2.07497 v 11.73741 c 0,1.62065 -1.3138,2.93445 -2.93445,2.93445 H 48.37275 c -1.62063,0 -2.93443,-1.3138 -2.93443,-2.93445 z" />
  <path
     style="fill-rule:evenodd;stroke:#6aa84f;stroke-width:2;stroke-linecap:butt;stroke-linejoin:round"
     inkscape:connector-curvature="0"
     id="path4763"
     d="m 45.43832,126.37801 v 0 c 0,-1.62065 1.3138,-2.93445 2.93443,-2.93445 h 11.83191 v 0 c 0.77826,0 1.52464,0.30916 2.07497,0.85948 0.55031,0.55031 0.85948,1.2967 0.85948,2.07497 v 11.73741 c 0,1.62065 -1.3138,2.93445 -2.93445,2.93445 H 48.37275 c -1.62063,0 -2.93443,-1.3138 -2.93443,-2.93445 z" />
  <path
     style="fill:#1c4587;fill-rule:nonzero"
     inkscape:connector-curvature="0"
     id="path4767"
     d="m 239.09717,44.37639 q 0,-2.92187 1.85937,-4.78125 1.875,-1.875 4.8125,-1.875 2.9375,0 4.79688,1.875 1.875,1.85938 1.875,4.78125 v 72.79688 q 0,4.9375 1.85937,8.14062 1.875,3.20313 4.79688,3.20313 h 3.34375 q 2.65625,0 4.32812,1.875 1.67188,1.85937 1.67188,4.78125 0,2.9375 -2.54688,4.8125 -2.53125,1.85937 -6.53125,1.85937 h -0.26562 q -5.73438,0 -10.32813,-3.125 -4.59375,-3.14062 -7.14062,-8.79687 -2.53125,-5.67188 -2.53125,-12.75 z m 75.73282,24.00001 q 10.53125,0 18.85937,4.73437 8.34375,4.73438 13.07813,13.14063 4.73437,8.39062 4.73437,19.1875 0,10.67187 -4.67187,19.07812 -4.67188,8.39063 -13,13.125 -8.32813,4.73438 -19,4.73438 -10.65625,0 -19.0625,-4.73438 -8.40625,-4.73437 -13.07813,-13.125 -4.65625,-8.40625 -4.65625,-19.07812 0,-10.79688 4.65625,-19.1875 4.67188,-8.40625 13.07813,-13.14063 8.40625,-4.73437 19.0625,-4.73437 z m 0,12 q -6.79688,0 -12.20313,3.20312 -5.39062,3.20313 -8.46875,8.9375 -3.0625,5.73438 -3.0625,12.92188 0,7.20312 3.0625,12.875 3.07813,5.67187 8.46875,8.875 5.40625,3.1875 12.20313,3.1875 6.79687,0 12.20312,-3.1875 5.40625,-3.20313 8.39063,-8.875 3,-5.67188 3,-12.875 0,-7.1875 -3,-12.92188 -2.98438,-5.73437 -8.39063,-8.9375 -5.40625,-3.20312 -12.20312,-3.20312 z M 449.23276,68.90765 q 2.79687,0 4.1875,1.46875 1.40625,1.46875 1.40625,4 0,2.14062 -0.67188,3.875 l -19.73437,59.1875 q -0.65625,1.875 -2.39063,3.14062 -1.73437,1.26563 -3.875,1.26563 -2.26562,0 -4.0625,-1.26563 -1.79687,-1.26562 -2.32812,-3.14062 l -13.0625,-48.39063 -13.73438,48.39063 q -0.67187,1.875 -2.46875,3.14062 -1.79687,1.26563 -3.9375,1.26563 -2.125,0 -3.93746,-1.26563 -1.79688,-1.26562 -2.45313,-3.14062 L 362.43592,78.2514 q -0.53125,-1.73438 -0.53125,-3.73438 0,-5.60937 5.59375,-5.60937 2.53125,0 4.1875,1.46875 1.67187,1.46875 2.75,4.67187 l 14.39059,44.9375 13.60937,-46 q 0.65625,-2.26562 2.32813,-3.67187 1.67187,-1.40625 4.32812,-1.40625 2.53125,0 4.20313,1.40625 1.67187,1.40625 2.32812,3.67187 l 12,46.92188 14.67188,-45.85938 q 1.85937,-6.14062 6.9375,-6.14062 z m 51.9848,-0.53125 q 15.73438,0 26.14063,12 1.32812,1.46875 1.32812,3.46875 0,2.9375 -2.92187,4.9375 -1.34375,0.9375 -3.07813,0.9375 -3.0625,0 -5.1875,-2.40625 -3.34375,-3.59375 -7.28125,-5.26563 -3.92187,-1.67187 -9,-1.67187 -10.26562,0 -16.67187,6.875 -6.39063,6.85937 -6.39063,18.1875 0,7.20312 3,12.875 3,5.67187 8.39063,8.875 5.40625,3.1875 12.34375,3.1875 9.0625,0 14.67187,-4.65625 2.53125,-1.875 4.9375,-1.875 1.85938,0 3.45313,1.20312 2.53125,2.125 2.53125,4.79688 0,2 -1.59375,3.59375 -9.59375,8.9375 -24,8.9375 -10.53125,0 -18.9375,-4.79688 -8.39063,-4.79687 -13.125,-13.26562 -4.73438,-8.46875 -4.73438,-18.875 0,-10.65625 4.59375,-19.125 4.60938,-8.46875 12.875,-13.20313 8.26563,-4.73437 18.65625,-4.73437 z" />
  <path
     style="fill:#1c4587;fill-rule:nonzero"
     inkscape:connector-curvature="0"
     id="path4771"
     d="m 572.56919,68.45513 q 10.53125,0 18.85937,4.73437 8.34375,4.73438 13.07813,13.14063 4.73437,8.39062 4.73437,19.1875 0,10.67187 -4.67187,19.07812 -4.67188,8.39063 -13,13.125 -8.32813,4.73438 -19,4.73438 -10.65625,0 -19.0625,-4.73438 -8.40625,-4.73437 -13.07813,-13.125 -4.65625,-8.40625 -4.65625,-19.07812 0,-10.79688 4.65625,-19.1875 4.67188,-8.40625 13.07813,-13.14063 8.40625,-4.73437 19.0625,-4.73437 z m 0,12 q -6.79688,0 -12.20313,3.20312 -5.39062,3.20313 -8.46875,8.9375 -3.0625,5.73438 -3.0625,12.92188 0,7.20312 3.0625,12.875 3.07813,5.67187 8.46875,8.875 5.40625,3.1875 12.20313,3.1875 6.79687,0 12.20312,-3.1875 5.40625,-3.20313 8.39063,-8.875 3,-5.67188 3,-12.875 0,-7.1875 -3,-12.92188 -2.98438,-5.73437 -8.39063,-8.9375 -5.40625,-3.20312 -12.20312,-3.20312 z" />
  <path
     style="fill:#1c4587;fill-rule:nonzero"
     inkscape:connector-curvature="0"
     id="path4775"
     d="m 696.0084,68.33013 q 11.60938,0 18.73438,7.60937 7.14062,7.59375 7.14062,21.1875 v 38.125 q 0,2.9375 -1.875,4.875 -1.85937,1.9375 -4.92187,1.9375 -2.9375,0 -4.875,-1.9375 -1.9375,-1.9375 -1.9375,-4.875 V 97.127 q 0,-8.14062 -4.0625,-12.32812 -4.0625,-4.20313 -10.85938,-4.20313 -6.9375,0 -11.40625,4.79688 -4.46875,4.79687 -4.46875,12.26562 V 135.252 q 0,2.9375 -1.875,4.875 -1.85937,1.9375 -4.92187,1.9375 -2.9375,0 -4.875,-1.9375 -1.92188,-1.9375 -1.92188,-4.875 V 97.127 q 0,-8.14062 -4.07812,-12.32812 -4.0625,-4.20313 -10.85938,-4.20313 -7.0625,0 -11.53125,4.79688 -4.46875,4.79687 -4.46875,12.26562 V 135.252 q 0,2.9375 -1.875,4.875 -1.85937,1.9375 -4.92187,1.9375 -2.9375,0 -4.875,-1.9375 -1.92188,-1.9375 -1.92188,-4.875 V 75.92388 q 0,-3.0625 1.92188,-4.92188 1.9375,-1.875 4.875,-1.875 2.9375,0 4.79687,1.79688 1.875,1.79687 2,4.73437 3.46875,-3.46875 8.26563,-5.39062 4.8125,-1.9375 10.40625,-1.9375 6.79687,0 12.1875,2.73437 5.40625,2.73438 8.875,7.79688 4,-4.9375 10,-7.73438 6,-2.79687 13.32812,-2.79687 z" />
  <path
     style="fill:#1c4587;fill-rule:nonzero"
     inkscape:connector-curvature="0"
     id="path4779"
     d="m 769.37354,68.45513 q 10.53125,0 18.85937,4.73437 8.34375,4.73438 13.07813,13.14063 4.73437,8.39062 4.73437,19.1875 0,10.67187 -4.67187,19.07812 -4.67188,8.39063 -13,13.125 -8.32813,4.73438 -19,4.73438 -10.65625,0 -19.0625,-4.73438 -8.40625,-4.73437 -13.07813,-13.125 -4.65625,-8.40625 -4.65625,-19.07812 0,-10.79688 4.65625,-19.1875 4.67188,-8.40625 13.07813,-13.14063 8.40625,-4.73437 19.0625,-4.73437 z m 0,12 q -6.79688,0 -12.20313,3.20312 -5.39062,3.20313 -8.46875,8.9375 -3.0625,5.73438 -3.0625,12.92188 0,7.20312 3.0625,12.875 3.07813,5.67187 8.46875,8.875 5.40625,3.1875 12.20313,3.1875 6.79687,0 12.20312,-3.1875 5.40625,-3.20313 8.39063,-8.875 3,-5.67188 3,-12.875 0,-7.1875 -3,-12.92188 -2.98438,-5.73437 -8.39063,-8.9375 -5.40625,-3.20312 -12.20312,-3.20312 z" />
  <path
     style="fill:#1c4587;fill-rule:nonzero"
     inkscape:connector-curvature="0"
     id="path4783"
     d="m 849.94114,128.59576 q 2.40625,0 4.0625,1.875 1.67187,1.85938 1.67187,4.78125 0,2.9375 -2.20312,4.8125 -2.20313,1.85938 -5.65625,1.85938 h -2.40625 q -6.53125,0 -11.9375,-3.39063 -5.39063,-3.40625 -8.46875,-9.26562 -3.0625,-5.875 -3.0625,-13.20313 v -32.9375 h -6.125 q -2.79688,0 -4.53125,-1.59375 -1.73438,-1.60937 -1.73438,-4 0,-2.67187 1.73438,-4.26562 1.73437,-1.60938 4.53125,-1.60938 h 6.125 V 52.45514 q 0,-2.92188 1.85937,-4.78125 1.875,-1.875 4.8125,-1.875 2.9375,0 4.79688,1.875 1.875,1.85937 1.875,4.78125 v 19.20312 h 11.32812 q 2.79688,0 4.53125,1.60938 1.73438,1.59375 1.73438,4.26562 0,2.39063 -1.73438,4 -1.73437,1.59375 -4.53125,1.59375 h -11.32812 v 32.9375 q 0,5.32813 2.92187,8.9375 2.9375,3.59375 7.20313,3.59375 z" />
  <path
     style="fill:#1c4587;fill-rule:nonzero"
     inkscape:connector-curvature="0"
     id="path4787"
     d="m 931.80814,104.33013 q 0,2.53125 -1.7344,4.20312 -1.7343,1.65625 -4.4062,1.65625 h -50.6563 q 1.4532,9.32813 8.4532,15.0625 7,5.73438 17.1406,5.73438 4,0 8.3281,-1.45313 4.3438,-1.46875 7.1406,-3.60937 1.8594,-1.46875 4.3907,-1.46875 2.5312,0 4,1.34375 2.4062,2 2.4062,4.53125 0,2.39062 -2.1406,4 -4.5313,3.59375 -11.2656,5.85937 -6.7344,2.26563 -12.8594,2.26563 -10.9375,0 -19.6094,-4.73438 -8.6561,-4.73437 -13.531,-13.125 -4.85937,-8.40625 -4.85937,-19.07812 0,-10.65625 4.59375,-19.125 4.60922,-8.46875 12.79662,-13.20313 8.2031,-4.73437 18.6094,-4.73437 10.2656,0 17.7344,4.54687 7.4687,4.53125 11.4687,12.67188 4,8.125 4,18.65625 z m -33.2031,-24.40625 q -9.7344,0 -15.7969,5.34375 -6.0625,5.32812 -7.6719,14.26562 h 44.4063 q -1.2031,-8.9375 -6.6719,-14.26562 -5.4687,-5.34375 -14.2656,-5.34375 z" />
</svg>
